PathFileType	4	(X/Y/Z)	C:\Users\WrightLab\Desktop\Jo\P2_Trial10.trc
DataRate	CameraRate	NumFrames	NumMarkers	Units	OrigDataRate	OrigDataStartFrame	OrigNumFrames
100.00	100.00	       55	19	mm	100.00	210	       837
Frame#	Time	Headset_Front			Headset_Back			Headset_Left			Headset_Right			Left_Shoulder			Right_Shoulder			Sternum			C7			Left Elbow			Right Elbow			Left Wrist			Right Wrist			Left ASIS			Right ASIS			S2			Left Knee			Right Knee			Left Ankle			Right Ankle			
		X1	Y1	Z1	X2	Y2	Z2	X3	Y3	Z3	X4	Y4	Z4	X5	Y5	Z5	X6	Y6	Z6	X7	Y7	Z7	X8	Y8	Z8	X9	Y9	Z9	X10	Y10	Z10	X11	Y11	Z11	X12	Y12	Z12	X13	Y13	Z13	X14	Y14	Z14	X15	Y15	Z15	X16	Y16	Z16	X17	Y17	Z17	X18	Y18	Z18	X19	Y19	Z19	

210	2.090																																														-77.96268	416.91541	-1587.83826										
211	2.100																																														-78.97361	415.93188	-1585.32483										
212	2.110																																														-79.42267	414.91724	-1583.03052										
213	2.120																																														-80.11021	414.72122	-1581.54419										
214	2.130																																														-80.01827	415.04861	-1580.64563										
215	2.140																																														-80.47594	414.86444	-1578.76404										
216	2.150																																														-81.77574	415.24301	-1577.03357										
217	2.160																																														-83.22841	414.74908	-1574.91479										
218	2.170																																														-83.99964	414.58792	-1573.46509										
219	2.180																																														-85.28161	413.06528	-1570.37231										
220	2.190																												-234.22327	924.17401	-1713.06067																-86.07806	412.87918	-1569.04761										
221	2.200																									-7.05357	1103.50574	-1509.85632	-234.72762	923.99500	-1710.78137																-87.08567	413.33200	-1567.74817										
222	2.210																									-10.44636	1104.68970	-1500.46741	-235.30133	923.66919	-1707.99524																-88.91984	413.44366	-1565.89978										
223	2.220																									-12.25509	1103.35181	-1496.28760	-235.97903	923.55212	-1705.39954																-90.25715	412.11844	-1562.90198										
224	2.230																									-15.89826	1102.60767	-1486.82397	-236.76128	923.24066	-1702.62659																-91.54804	410.56030	-1559.93311										
225	2.240																									-18.69726	1100.43518	-1484.03882	-237.58873	923.14038	-1700.00122																-92.40163	411.04434	-1558.17395										
226	2.250																									-22.98256	1099.88330	-1478.70642	-238.53302	923.05542	-1696.90991																-94.86333	410.81537	-1555.23926										
227	2.260																									-26.64990	1099.69019	-1474.18848	-239.64610	923.16614	-1694.47205																-95.62453	410.83661	-1553.34546										
228	2.270																									-29.87753	1098.68872	-1466.43127	-240.91457	922.92792	-1691.37622																-96.89573	410.76312	-1550.58521										
229	2.280																									-32.93420	1098.07666	-1459.12976	-242.15970	922.77783	-1688.28174																-97.67860	409.80017	-1546.96191										
230	2.290																									-36.59997	1097.92297	-1448.92664	-243.67079	922.76465	-1685.63257																-100.49366	409.71658	-1543.92737										
231	2.300																									-41.46521	1098.24561	-1441.16699	-245.23155	922.71887	-1682.59790																-101.93319	409.55820	-1541.44727										
232	2.310																									-45.82109	1096.37378	-1437.61987	-246.80280	922.74780	-1679.70410																-102.85297	409.19885	-1538.41968										
233	2.320																									-49.64678	1095.69873	-1432.22961	-248.43324	922.47705	-1676.40564																-104.92094	408.30066	-1534.12646										
234	2.330																									-53.52633	1097.52942	-1421.97034	-250.13239	922.18671	-1672.92017																-107.16379	408.24515	-1531.17493										
235	2.340																									-56.34050	1096.77063	-1416.40808	-251.87869	922.08453	-1669.98889																-108.55405	408.12988	-1528.32849										
236	2.350																									-62.51836	1097.59460	-1410.02405	-253.50508	921.82135	-1666.21521																-110.79701	407.52969	-1524.57788										
237	2.360																									-66.98792	1095.98535	-1405.47314	-255.33678	921.20563	-1662.49829																-113.69769	406.24951	-1520.32141										
238	2.370																									-72.41187	1097.81189	-1390.95349	-257.09070	920.77692	-1658.47791																-114.95040	406.19824	-1518.28882										
239	2.380																									-76.36376	1097.61108	-1386.87769	-258.97412	920.74353	-1655.00562																-115.92638	406.23318	-1516.64856				-97.79247	57.39169	-1608.97522				
240	2.390																									-81.60165	1096.29675	-1385.53674	-260.81613	920.48999	-1651.29114																-119.34118	405.68805	-1511.72546				-97.58716	57.65469	-1608.18054				
241	2.400																									-85.60010	1095.02759	-1377.76978	-262.80499	920.35345	-1647.35657																-120.38532	404.96835	-1509.15344				-96.84428	57.56181	-1606.40857				
242	2.410																									-91.02058	1095.94116	-1366.03174	-264.90353	919.80157	-1643.08923																-122.00004	404.15219	-1505.31531				-96.36713	57.80035	-1605.36694				
243	2.420																									-95.84809	1094.26062	-1368.25183	-267.24521	919.27509	-1638.88269																-124.41419	403.73718	-1501.49292				-95.58411	58.85085	-1605.04333				
244	2.430																									-100.32659	1093.55396	-1358.38428	-269.77600	918.85999	-1634.73120																-126.26682	402.40338	-1498.33838				-95.32166	59.69592	-1602.92810				
245	2.440																									-105.91595	1094.13220	-1345.77417	-272.41351	918.34528	-1630.29578																-127.84427	402.46558	-1495.00830				-95.76765	58.13566	-1600.59058				
246	2.450																									-110.95701	1091.77869	-1347.57178	-275.25977	917.89856	-1625.81140																-130.64963	401.81183	-1491.15833				-95.59318	58.79197	-1598.98157				
247	2.460																									-115.17661	1091.14990	-1339.44824	-278.29996	917.62396	-1621.85999																-133.28067	399.88770	-1485.59473				-95.41003	58.56286	-1597.14124				
248	2.470																									-119.37837	1089.90845	-1331.20911	-281.45444	916.95496	-1617.05872																-135.96332	400.10428	-1482.34375				-95.75165	58.19581	-1594.89417				
249	2.480																									-124.90427	1087.61694	-1330.76648	-284.83746	916.03265	-1611.88989																-138.44318	398.47971	-1477.36182				-95.42013	59.14274	-1592.48682				
250	2.490																									-129.70848	1086.84595	-1321.38672	-288.46570	915.20673	-1607.05774																-141.63087	397.67938	-1472.90308				-96.50289	57.97237	-1589.65430				
251	2.500																									-134.93987	1087.22302	-1309.11499	-292.46759	914.26086	-1601.97852																-143.90753	397.35379	-1468.90735				-96.60544	59.08934	-1587.36157				
252	2.510																									-140.40857	1083.98413	-1309.31335	-296.63049	913.33539	-1597.05762																-148.38087	395.70877	-1464.00745				-97.97839	59.98883	-1584.46094				
253	2.520																									-144.68721	1082.27344	-1302.35059	-301.07004	912.24542	-1591.90234																-150.69466	395.58649	-1460.20776				-99.27390	57.15073	-1579.93689				
254	2.530																									-149.48120	1082.29333	-1290.28101	-305.84229	911.15912	-1586.69250																-155.06683	392.87112	-1453.92102				-99.79488	57.48680	-1576.94055				
255	2.540																									-154.52431	1078.34473	-1292.61096	-310.88431	910.29730	-1582.13855																-157.05794	390.74619	-1456.79016				-101.15195	57.73568	-1573.43909				
256	2.550																									-158.92215	1076.87646	-1286.62219	-316.11090	908.96136	-1576.67688																-161.91447	391.27936	-1444.86255				-102.89564	56.18716	-1568.69373				
257	2.560																									-163.75156	1075.51941	-1277.51062	-321.56738	907.59619	-1571.14709																-166.33797	390.41287	-1440.41187				-104.50887	56.86838	-1564.40186				
258	2.570																									-169.77211	1073.13867	-1276.03735	-327.28708	906.54138	-1566.03308																-169.77097	388.68246	-1435.09302				-106.32347	55.34319	-1559.11157				
259	2.580																									-174.43921	1072.66357	-1265.19666	-333.04016	905.72034	-1560.76843																-174.22148	388.12692	-1429.36414				-107.95379	55.15054	-1554.25513				
260	2.590																									-180.17625	1070.03943	-1258.07764	-339.03760	905.68579	-1556.16980																-179.25912	386.28668	-1423.00232				-108.64041	56.07429	-1550.48169				
261	2.600																									-185.43044	1067.80566	-1257.80151	-345.19882	905.16876	-1550.72876																-185.35609	386.59085	-1417.85718				-111.16605	55.87257	-1544.20984				
262	2.610																									-188.25902	1065.99622	-1251.07947	-351.07889	905.11523	-1545.65479																-190.44774	384.86047	-1410.32349				-112.63638	55.80613	-1538.42651				
263	2.620																									-193.33109	1063.11511	-1247.32117	-356.86569	905.31055	-1540.63135																-195.91170	385.68829	-1404.23596				-113.30007	57.10265	-1532.77283				
264	2.630																									-198.81721	1063.06970	-1242.86816	-361.60745	907.71216	-1537.27417																-202.88742	385.60474	-1397.46680				-117.46992	58.22602	-1524.86536				
